<svg xmlns="http://www.w3.org/2000/svg" width="207" height="73" viewBox="0 0 207 73" fill="none">
<path d="M187.34 0.620132C187.484 0.606157 187.627 0.59361 187.77 0.582473L188.944 0.522425C197.812 0.304924 205.282 5.49488 205.968 12.6301C206.337 16.4555 204.69 20.1095 201.736 22.908L200.84 23.6974C199.747 24.5941 198.51 25.3834 197.157 26.0379L194.4 27.1293C193.005 27.5684 191.525 27.8743 189.982 28.0243C189.719 28.05 189.457 28.0709 189.196 28.0868L188.015 28.1278C186.461 28.14 184.953 27.9858 183.524 27.6829C181.668 29.4591 178.5 31.9779 175.189 32.3002C176.759 30.49 176.945 27.2427 176.824 24.848C173.739 22.681 171.685 19.59 171.339 16.0002C170.981 12.2879 172.525 8.73805 175.322 5.97577L176.21 5.1616C177.445 4.10773 178.877 3.19405 180.46 2.46234L183.103 1.45716C184.445 1.04928 185.864 0.763808 187.34 0.620132Z" fill="#F4F4F4"/>
<path fill-rule="evenodd" clip-rule="evenodd" d="M191.259 6.66533L190.215 7.06436L187.779 0.643468C187.636 0.654277 187.492 0.666492 187.349 0.68013C185.872 0.820344 184.453 1.10205 183.11 1.50594C183.318 1.6825 183.485 1.92872 183.607 2.24983L184.964 5.83006C185.143 6.29797 185.123 6.72671 184.933 7.11642C184.736 7.49801 184.433 7.76856 184.03 7.92272C183.623 8.07802 183.225 8.07498 182.816 7.92467C182.422 7.75825 182.126 7.4518 181.947 6.98386L180.588 3.40369C180.465 3.07599 180.426 2.77596 180.464 2.50267C178.88 3.22892 177.446 4.13691 176.208 5.18507L178.542 11.3318L177.497 11.7314L175.319 5.99497C172.516 8.74318 170.964 12.2791 171.313 15.981C171.651 19.5607 173.699 22.6466 176.778 24.8134C176.894 27.2011 176.701 30.4383 175.127 32.2397C178.439 31.9252 181.612 29.4205 183.472 27.6535C184.901 27.9584 186.408 28.1152 187.962 28.1063L185.755 22.3032L186.799 21.9033L189.143 28.0678C189.404 28.0525 189.666 28.0322 189.929 28.0071C191.472 27.8607 192.954 27.5588 194.35 27.1239C194.192 26.9635 194.064 26.7606 193.969 26.5127L192.611 22.9325C192.419 22.4252 192.431 21.9852 192.62 21.607C192.827 21.222 193.118 20.9466 193.527 20.7912C193.93 20.6381 194.334 20.6462 194.736 20.7988C195.134 20.9536 195.438 21.2734 195.629 21.7787L196.987 25.359C197.078 25.5966 197.117 25.8239 197.109 26.0414C198.464 25.3916 199.703 24.6073 200.797 23.7155L198.484 17.6259L199.528 17.2264L201.695 22.9303C204.655 20.1463 206.311 16.5068 205.95 12.6921C205.279 5.57699 197.821 0.387354 188.953 0.586009L191.259 6.66533ZM183.058 6.73053C183.174 7.04012 183.389 7.12805 183.686 7.01574C183.995 6.89787 184.087 6.69208 183.97 6.38354L182.479 2.45549C182.362 2.14697 182.156 2.05355 181.848 2.17037C181.543 2.28604 181.453 2.49597 181.569 2.80242L183.058 6.73053ZM195.708 26.5436C195.411 26.6568 195.197 26.568 195.081 26.2595L193.59 22.3303C193.474 22.0238 193.566 21.8138 193.87 21.6982C194.178 21.5814 194.385 21.6748 194.502 21.9822L195.993 25.9112C196.109 26.22 196.018 26.4256 195.708 26.5436ZM196.311 6.99748C196.714 6.84439 197.119 6.85139 197.52 7.00509C197.919 7.1588 198.223 7.47864 198.414 7.98496L199.772 11.5652C199.95 12.0331 199.93 12.4608 199.741 12.8505C199.543 13.2331 199.241 13.5037 198.838 13.6578C198.43 13.8121 198.032 13.8101 197.624 13.6598C197.23 13.4944 196.934 13.1869 196.753 12.719L195.397 9.13879C195.205 8.63146 195.217 8.19144 195.404 7.8133C195.614 7.42821 195.904 7.15279 196.311 6.99748ZM197.866 12.4656C197.982 12.7742 198.196 12.8632 198.494 12.7498C198.803 12.633 198.894 12.4262 198.778 12.1186L197.286 8.18958C197.169 7.8821 196.963 7.78764 196.656 7.90547C196.35 8.02117 196.26 8.2311 196.375 8.53758L197.866 12.4656ZM180.903 21.6752L179.849 22.0766L177.332 15.4221L178.385 15.0207L180.903 21.6752ZM186.284 19.2388L187.338 18.8374L184.823 12.1821L183.769 12.5835L186.284 19.2388ZM193.448 16.2269L192.394 16.6278L189.881 9.9724L190.934 9.5716L193.448 16.2269Z" fill="#C53B27"/>
<path d="M16.7675 58.7398C16.3237 59.7879 15.5238 60.6078 14.3679 61.1955C13.212 61.7842 11.8743 62.078 10.3549 62.078C8.42338 62.078 6.79936 61.7366 5.48595 61.0535C4.17152 60.3691 3.11068 59.4716 2.30343 58.359C1.49617 57.2461 0.909751 55.9595 0.546273 54.4956C0.18174 53.0338 0 51.539 0 50.0137C0 48.2019 0.268382 46.5394 0.807258 45.0299C1.34508 43.5193 2.0731 42.2327 2.99236 41.1675C3.90948 40.1026 4.98725 39.2751 6.22242 38.6874C7.45657 38.0997 8.78684 37.8048 10.2112 37.8048C13.1243 37.8048 15.3094 38.9824 16.7664 41.3342V38.4254H22.9413V62.1269C22.9413 63.9058 22.6391 65.4716 22.0389 66.823C21.4367 68.1744 20.6136 69.3031 19.5686 70.2101C18.5236 71.1162 17.2894 71.8078 15.8641 72.285C14.4387 72.7615 12.9182 73 11.3037 73C9.6892 73 8.1835 72.7678 6.79089 72.3074C5.39721 71.847 4.20218 71.1957 3.20366 70.3522C2.20728 69.5112 1.42221 68.4854 0.852693 67.2759C0.285287 66.0679 0 64.7004 0 63.175H5.74694C5.74694 64.605 6.21396 65.7091 7.14909 66.4889C8.08208 67.2664 9.32571 67.658 10.8779 67.658C12.5241 67.658 13.9167 67.2049 15.0579 66.2991C16.198 65.393 16.7675 64.1594 16.7675 62.6032V58.7398ZM11.6852 57.2142C13.2046 57.2142 14.463 56.634 15.4615 55.4724C16.459 54.3131 16.9577 52.7302 16.9577 50.7286C16.9577 45.7047 15.2005 43.1927 11.6852 43.1927C8.16977 43.1927 6.41262 45.5774 6.41262 50.3456C6.41262 52.4438 6.91029 54.1125 7.90878 55.3527C8.90624 56.5939 10.1647 57.2142 11.6852 57.2142Z" fill="#07205F"/>
<path d="M31.0625 51.7788C31.1576 53.5587 31.6723 54.9728 32.6064 56.023C33.5403 57.0711 34.7672 57.596 36.2865 57.596C37.2997 57.596 38.1947 57.3658 38.9702 56.9044C39.7459 56.443 40.2445 55.799 40.4674 54.9728H46.8315C46.1024 57.3892 44.8367 59.2489 43.0309 60.5526C41.2261 61.8563 39.0729 62.5075 36.5717 62.5075C28.7812 62.5075 24.8867 58.2465 24.8867 49.727C24.8867 47.9152 25.1393 46.2773 25.6464 44.8155C26.1525 43.3539 26.8888 42.0979 27.8559 41.0488C28.8214 39.9984 30.0008 39.1966 31.3944 38.6395C32.7869 38.0837 34.3866 37.8048 36.1914 37.8048C39.8019 37.8048 42.5333 38.9664 44.3855 41.2863C46.2378 43.6072 47.1634 47.1048 47.1634 51.7788H31.0625ZM40.8003 47.8685C40.7677 47.0104 40.6176 46.255 40.3482 45.6028C40.0788 44.9513 39.7226 44.4103 39.28 43.9818C38.8361 43.5522 38.33 43.2349 37.7594 43.028C37.19 42.8212 36.6036 42.7183 36.0023 42.7183C34.7672 42.7183 33.6977 43.1714 32.7965 44.0772C31.8942 44.9832 31.3785 46.2467 31.2528 47.8685H40.8003Z" fill="#07205F"/>
<path d="M64.0283 61.8882V47.6767C64.0283 45.8646 63.727 44.6405 63.1258 44.0041C62.5245 43.3687 61.4945 43.0514 60.0384 43.0514C56.8401 43.0514 55.2401 44.8484 55.2401 48.4404V61.8882H49.0664V38.4254H54.956V41.8582C55.684 40.5246 56.6498 39.5146 57.8543 38.8305C59.0568 38.1464 60.609 37.8048 62.5087 37.8048C63.6161 37.8048 64.6464 37.9712 65.5961 38.3054C66.546 38.6395 67.3607 39.1403 68.0423 39.8076C68.7226 40.4749 69.2616 41.2948 69.6578 42.2644C70.0529 43.2349 70.2517 44.3551 70.2517 45.6261V61.8882H64.0283Z" fill="#07205F"/>
<path d="M78.374 51.7788C78.4691 53.5587 78.9838 54.9728 79.9179 56.023C80.8518 57.0711 82.0787 57.596 83.599 57.596C84.6112 57.596 85.5062 57.3658 86.2829 56.9044C87.0584 56.443 87.5573 55.799 87.7789 54.9728H94.1442C93.4149 57.3892 92.1482 59.2489 90.3446 60.5526C88.5399 61.8563 86.3854 62.5075 83.8844 62.5075C76.094 62.5075 72.1992 58.2465 72.1992 49.727C72.1992 47.9152 72.4518 46.2773 72.9589 44.8155C73.465 43.3539 74.2026 42.0979 75.1683 41.0488C76.1341 39.9984 77.3133 39.1966 78.7069 38.6395C80.0994 38.0837 81.6993 37.8048 83.5039 37.8048C87.1144 37.8048 89.8448 38.9664 91.698 41.2863C93.5502 43.6072 94.4759 47.1048 94.4759 51.7788H78.374ZM88.1128 47.8685C88.0802 47.0104 87.9301 46.255 87.6617 45.6028C87.3923 44.9513 87.0351 44.4103 86.5935 43.9818C86.1496 43.5522 85.6435 43.2349 85.0731 43.028C84.5025 42.8212 83.9161 42.7183 83.3148 42.7183C82.0797 42.7183 81.0115 43.1714 80.109 44.0772C79.2067 44.9832 78.691 46.2467 78.5653 47.8685H88.1128Z" fill="#07205F"/>
<path d="M109.627 46.4366H115.375V53.1122C115.375 54.3534 115.191 55.5371 114.828 56.6648C114.463 57.7935 113.894 58.7939 113.118 59.6701C112.341 60.5442 111.36 61.2358 110.173 61.744C108.986 62.2521 107.568 62.5076 105.922 62.5076C104.211 62.5076 102.756 62.2521 101.551 61.744C100.348 61.2358 99.3577 60.5527 98.5832 59.6934C97.8067 58.8353 97.2444 57.8339 96.8969 56.6891C96.5482 55.5446 96.375 54.3363 96.375 53.0645V39.0609L102.455 31.3063V38.4245H115.375V42.8118H102.455V52.4439C102.455 53.9387 102.732 55.0917 103.286 55.9021C103.84 56.7125 104.75 57.1177 106.017 57.1177C107.253 57.1177 108.162 56.721 108.748 55.9254C109.334 55.1309 109.628 54.0022 109.628 52.5393V46.4366H109.627Z" fill="#07205F"/>
<path d="M123.258 51.7788C123.353 53.5587 123.867 54.9728 124.8 56.023C125.735 57.0711 126.962 57.596 128.482 57.596C129.495 57.596 130.39 57.3658 131.166 56.9044C131.94 56.443 132.44 55.799 132.662 54.9728H139.027C138.298 57.3892 137.032 59.2489 135.226 60.5526C133.421 61.8563 131.267 62.5075 128.767 62.5075C120.978 62.5075 117.082 58.2465 117.082 49.727C117.082 47.9152 117.335 46.2773 117.842 44.8155C118.348 43.3539 119.083 42.0979 120.051 41.0488C121.017 39.9984 122.195 39.1966 123.59 38.6395C124.983 38.0837 126.583 37.8048 128.388 37.8048C131.997 37.8048 134.729 38.9664 136.581 41.2863C138.433 43.6072 139.36 47.1048 139.36 51.7788H123.258ZM132.996 47.8685C132.964 47.0104 132.814 46.255 132.544 45.6028C132.275 44.9513 131.919 44.4103 131.475 43.9818C131.031 43.5522 130.525 43.2349 129.956 43.028C129.386 42.8212 128.799 42.7183 128.198 42.7183C126.963 42.7183 125.894 43.1714 124.991 44.0772C124.088 44.9832 123.574 46.2467 123.448 47.8685H132.996Z" fill="#07205F"/>
<path d="M162.302 53.3999C162.143 54.7684 161.755 56.0075 161.138 57.1192C160.52 58.2331 159.736 59.1855 158.785 59.9811C157.836 60.7769 156.75 61.3953 155.532 61.8409C154.312 62.2852 152.991 62.5091 151.566 62.5091C149.982 62.5091 148.533 62.2471 147.219 61.7219C145.905 61.1969 144.773 60.4034 143.824 59.3372C142.874 58.2732 142.137 56.9537 141.615 55.3804C141.093 53.8064 140.832 51.9699 140.832 49.8727C140.832 47.7735 141.094 45.9606 141.615 44.4363C142.138 42.9107 142.874 41.6632 143.824 40.6927C144.773 39.7231 145.921 38.9996 147.267 38.5221C148.613 38.0449 150.109 37.8071 151.755 37.8071C153.276 37.8071 154.661 38.0153 155.912 38.4267C157.163 38.8394 158.255 39.444 159.19 40.2398C160.124 41.0354 160.86 41.9878 161.398 43.1007C161.937 44.2134 162.253 45.4535 162.348 46.8197H156.125C155.967 45.6117 155.484 44.6665 154.677 43.9831C153.869 43.299 152.879 42.9574 151.708 42.9574C151.042 42.9574 150.425 43.0678 149.855 43.2905C149.284 43.5132 148.785 43.8877 148.358 44.4117C147.932 44.9359 147.59 45.636 147.337 46.5102C147.083 47.3863 146.956 48.4578 146.956 49.7296C146.956 52.3053 147.415 54.2126 148.334 55.4527C149.252 56.6916 150.314 57.3122 151.518 57.3122C152.72 57.3122 153.75 56.9781 154.605 56.3098C155.46 55.6435 155.95 54.674 156.077 53.4012H162.302V53.3999Z" fill="#07205F"/>
<path d="M178.836 61.8876V47.3417C178.836 45.5627 178.528 44.3462 177.91 43.6947C177.293 43.0435 176.271 42.7176 174.847 42.7176C174.087 42.7176 173.406 42.8683 172.804 43.1708C172.202 43.474 171.696 43.8868 171.285 44.4107C170.873 44.9349 170.564 45.5394 170.358 46.2225C170.152 46.9068 170.05 47.6462 170.05 48.4407V61.8886H163.875V37.5963L170.05 29.8417V41.4767C170.271 40.9686 170.612 40.4836 171.07 40.0221C171.529 39.5617 172.061 39.1736 172.662 38.8543C173.263 38.5359 173.928 38.2814 174.657 38.0916C175.384 37.9005 176.144 37.8041 176.937 37.8041C179.344 37.8041 181.298 38.4649 182.803 39.7836C184.306 41.1031 185.059 42.9396 185.059 45.2911V61.8876H178.836Z" fill="#07205F"/>
</svg>
