<svg width="104" height="64" viewBox="0 0 104 64" fill="none" xmlns="http://www.w3.org/2000/svg">
<g clip-path="url(#clip0_2_51)">
<path d="M67.6735 0C68.6869 0 69.5793 0.667238 69.8659 1.63923L80.9027 39.0678C81.3345 40.5321 80.2369 42 78.7103 42H23.2851C21.7626 42 20.6657 40.5396 21.0899 39.0774L31.9491 1.64881C32.2325 0.672023 33.1272 0 34.1443 0H67.6735ZM50.9441 20.9971C50.944 20.8951 50.8207 20.8448 50.7488 20.917L49.0886 22.5869C48.9813 22.6948 48.8345 22.7548 48.6824 22.7549H40.1589C39.6853 22.7551 39.3015 23.1397 39.3015 23.6133V34.4844C39.3015 34.958 39.6854 35.3416 40.1589 35.3418H50.0857C50.5593 35.3417 50.9441 34.958 50.9441 34.4844V20.9971ZM54.031 7.32031C53.5574 7.32031 53.1728 7.70416 53.1726 8.17773V13.3467C53.1726 13.8204 53.5572 14.2051 54.031 14.2051H56.3883C56.3905 14.2051 56.3923 14.2069 56.3923 14.2091C56.3923 14.2112 56.394 14.213 56.3961 14.2132C58.0168 14.3281 59.1511 15.42 59.1511 17.2041C59.1511 18.3726 58.286 19.5108 57.3576 20.147C57.0678 20.3456 56.7155 20.418 56.3642 20.418H56.2812C55.6282 20.418 55.0064 20.1387 54.5727 19.6507L53.3747 18.3027C53.3048 18.2246 53.1757 18.274 53.1755 18.3789L53.1775 26.3613C53.1778 26.8347 53.5615 27.2186 54.0349 27.2188H57.2869C61.2417 27.2185 64.6375 24.5004 65.8538 20.4165C65.8541 20.4156 65.8548 20.415 65.8557 20.415C65.8566 20.415 65.8573 20.4145 65.8576 20.4137C66.1765 19.4152 66.3572 18.2052 66.3572 17.0908C66.3572 11.6961 62.3158 7.32047 57.3279 7.32031H54.031ZM40.1589 7.32031C39.6853 7.32041 39.3017 7.70417 39.3015 8.17773V19.5889C39.3015 20.0626 39.6852 20.4472 40.1589 20.4473H47.6501C47.9838 20.4472 48.3011 20.3011 48.5183 20.0479L50.6687 17.54C50.8463 17.3328 50.9441 17.0679 50.9441 16.7949V8.17773C50.9439 7.7042 50.5592 7.32046 50.0857 7.32031H40.1589Z" fill="#0A5AB3"/>
<path d="M5.87386 60.4038C5.01395 60.4038 4.2268 60.2115 3.51241 59.8269C2.81125 59.4423 2.249 58.8654 1.82566 58.0962C1.41555 57.3141 1.21049 56.3269 1.21049 55.1346C1.21049 53.9295 1.40893 52.9423 1.80582 52.1731C2.21593 51.4038 2.77156 50.8333 3.47272 50.4615C4.17388 50.0769 4.97426 49.8846 5.87386 49.8846C6.91899 49.8846 7.83843 50.1026 8.6322 50.5385C9.43919 50.9744 10.0742 51.5833 10.5372 52.3654C11.0135 53.1474 11.2516 54.0705 11.2516 55.1346C11.2516 56.1987 11.0135 57.1282 10.5372 57.9231C10.0742 58.7051 9.43919 59.3141 8.6322 59.75C7.83843 60.1859 6.91899 60.4038 5.87386 60.4038ZM0 64V50H2.36145V52.4231L2.28208 55.1538L2.48052 57.8846V64H0ZM5.59605 58.3462C6.19137 58.3462 6.72055 58.2179 7.18358 57.9615C7.65984 57.7051 8.03687 57.3333 8.31469 56.8462C8.59251 56.359 8.73142 55.7885 8.73142 55.1346C8.73142 54.4679 8.59251 53.8974 8.31469 53.4231C8.03687 52.9359 7.65984 52.5641 7.18358 52.3077C6.72055 52.0513 6.19137 51.9231 5.59605 51.9231C5.00072 51.9231 4.46493 52.0513 3.98867 52.3077C3.51241 52.5641 3.13537 52.9359 2.85756 53.4231C2.57974 53.8974 2.44083 54.4679 2.44083 55.1346C2.44083 55.7885 2.57974 56.359 2.85756 56.8462C3.13537 57.3333 3.51241 57.7051 3.98867 57.9615C4.46493 58.2179 5.00072 58.3462 5.59605 58.3462Z" fill="#0A5AB3"/>
<path d="M13.6041 60.2692V50H15.9655V52.8269L15.6877 52C16.0052 51.3077 16.5013 50.7821 17.176 50.4231C17.864 50.0641 18.7173 49.8846 19.7359 49.8846V52.1731C19.6301 52.1474 19.5309 52.1346 19.4383 52.1346C19.3457 52.1218 19.253 52.1154 19.1604 52.1154C18.2212 52.1154 17.4737 52.3846 16.9181 52.9231C16.3624 53.4487 16.0846 54.2372 16.0846 55.2885V60.2692H13.6041Z" fill="#0A5AB3"/>
<path d="M26.5059 60.4038C25.4211 60.4038 24.4553 60.1795 23.6086 59.7308C22.7619 59.2692 22.0939 58.641 21.6044 57.8462C21.1149 57.0513 20.8701 56.1474 20.8701 55.1346C20.8701 54.109 21.1149 53.2051 21.6044 52.4231C22.0939 51.6282 22.7619 51.0064 23.6086 50.5577C24.4553 50.109 25.4211 49.8846 26.5059 49.8846C27.6039 49.8846 28.5763 50.109 29.423 50.5577C30.2829 51.0064 30.951 51.6218 31.4272 52.4038C31.9167 53.1859 32.1614 54.0962 32.1614 55.1346C32.1614 56.1474 31.9167 57.0513 31.4272 57.8462C30.951 58.641 30.2829 59.2692 29.423 59.7308C28.5763 60.1795 27.6039 60.4038 26.5059 60.4038ZM26.5059 58.3462C27.1144 58.3462 27.6568 58.2179 28.1331 57.9615C28.6093 57.7051 28.9798 57.3333 29.2444 56.8462C29.5222 56.359 29.6611 55.7885 29.6611 55.1346C29.6611 54.4679 29.5222 53.8974 29.2444 53.4231C28.9798 52.9359 28.6093 52.5641 28.1331 52.3077C27.6568 52.0513 27.121 51.9231 26.5257 51.9231C25.9172 51.9231 25.3748 52.0513 24.8985 52.3077C24.4355 52.5641 24.065 52.9359 23.7872 53.4231C23.5094 53.8974 23.3705 54.4679 23.3705 55.1346C23.3705 55.7885 23.5094 56.359 23.7872 56.8462C24.065 57.3333 24.4355 57.7051 24.8985 57.9615C25.3748 58.2179 25.9105 58.3462 26.5059 58.3462Z" fill="#0A5AB3"/>
<path d="M40.4073 60.4038C39.5077 60.4038 38.7073 60.2115 38.0062 59.8269C37.305 59.4423 36.7494 58.8654 36.3393 58.0962C35.9424 57.3141 35.7439 56.3269 35.7439 55.1346C35.7439 53.9295 35.949 52.9423 36.3591 52.1731C36.7824 51.4038 37.3447 50.8333 38.0459 50.4615C38.7602 50.0769 39.5474 49.8846 40.4073 49.8846C41.4524 49.8846 42.3719 50.1026 43.1656 50.5385C43.9726 50.9744 44.6076 51.5833 45.0707 52.3654C45.5469 53.1474 45.7851 54.0705 45.7851 55.1346C45.7851 56.1987 45.5469 57.1218 45.0707 57.9038C44.6076 58.6859 43.9726 59.3013 43.1656 59.75C42.3719 60.1859 41.4524 60.4038 40.4073 60.4038ZM34.5334 60.2692V46H37.014V52.3846L36.8155 55.1154L36.8949 57.8462V60.2692H34.5334ZM40.1295 58.3462C40.7248 58.3462 41.254 58.2179 41.717 57.9615C42.1933 57.7051 42.5703 57.3333 42.8481 56.8462C43.126 56.359 43.2649 55.7885 43.2649 55.1346C43.2649 54.4679 43.126 53.8974 42.8481 53.4231C42.5703 52.9359 42.1933 52.5641 41.717 52.3077C41.254 52.0513 40.7248 51.9231 40.1295 51.9231C39.5342 51.9231 38.9984 52.0513 38.5221 52.3077C38.0459 52.5641 37.6688 52.9359 37.391 53.4231C37.1132 53.8974 36.9743 54.4679 36.9743 55.1346C36.9743 55.7885 37.1132 56.359 37.391 56.8462C37.6688 57.3333 38.0459 57.7051 38.5221 57.9615C38.9984 58.2179 39.5342 58.3462 40.1295 58.3462Z" fill="#0A5AB3"/>
<path d="M48.1375 60.2692V50H50.499V52.7692L50.0822 51.9231C50.4527 51.2692 50.9885 50.7692 51.6896 50.4231C52.404 50.0641 53.2242 49.8846 54.1503 49.8846C54.997 49.8846 55.7511 50.0449 56.4125 50.3654C57.0872 50.6859 57.6164 51.1795 58.0001 51.8462C58.3837 52.5 58.5755 53.3462 58.5755 54.3846V60.2692H56.095V54.6923C56.095 53.7821 55.8701 53.1026 55.4203 52.6538C54.9837 52.2051 54.3686 51.9808 53.5748 51.9808C52.9927 51.9808 52.4768 52.0962 52.027 52.3269C51.5772 52.5577 51.2266 52.9038 50.9752 53.3654C50.7371 53.8141 50.618 54.3846 50.618 55.0769V60.2692H48.1375Z" fill="#0A5AB3"/>
<path d="M65.7109 60.4038C64.5467 60.4038 63.6471 60.1154 63.0121 59.5385C62.3771 58.9487 62.0596 58.0833 62.0596 56.9423V47.7308H64.5401V56.8846C64.5401 57.3718 64.6658 57.75 64.9171 58.0192C65.1817 58.2885 65.5455 58.4231 66.0086 58.4231C66.5642 58.4231 67.0272 58.2821 67.3976 58L68.0922 59.7115C67.8011 59.9423 67.444 60.1154 67.0206 60.2308C66.5973 60.3462 66.1607 60.4038 65.7109 60.4038ZM60.3133 51.9231V50H67.3778V51.9231H60.3133Z" fill="#0A5AB3"/>
<path d="M74.7648 60.4038C73.5874 60.4038 72.5555 60.1795 71.6691 59.7308C70.796 59.2692 70.1146 58.641 69.6252 57.8462C69.1489 57.0513 68.9108 56.1474 68.9108 55.1346C68.9108 54.109 69.1423 53.2051 69.6053 52.4231C70.0816 51.6282 70.7298 51.0064 71.55 50.5577C72.3835 50.109 73.3294 49.8846 74.3877 49.8846C75.4196 49.8846 76.3391 50.1026 77.1461 50.5385C77.9531 50.9744 78.5881 51.5897 79.0511 52.3846C79.5141 53.1795 79.7457 54.1154 79.7457 55.1923C79.7457 55.2949 79.739 55.4103 79.7258 55.5385C79.7258 55.6667 79.7192 55.7885 79.706 55.9038H70.8753V54.3077H78.3963L77.4239 54.8077C77.4371 54.2179 77.3114 53.6987 77.0469 53.25C76.7823 52.8013 76.4185 52.4487 75.9554 52.1923C75.5056 51.9359 74.9831 51.8077 74.3877 51.8077C73.7792 51.8077 73.2434 51.9359 72.7804 52.1923C72.3306 52.4487 71.9734 52.8077 71.7088 53.2692C71.4574 53.7179 71.3317 54.25 71.3317 54.8654V55.25C71.3317 55.8654 71.4773 56.4103 71.7683 56.8846C72.0594 57.359 72.4695 57.7244 72.9987 57.9808C73.5278 58.2372 74.1364 58.3654 74.8243 58.3654C75.4196 58.3654 75.9554 58.2756 76.4317 58.0962C76.9079 57.9167 77.3313 57.6346 77.7017 57.25L79.0313 58.7308C78.555 59.2692 77.9531 59.6859 77.2255 59.9808C76.5111 60.2628 75.6908 60.4038 74.7648 60.4038Z" fill="#0A5AB3"/>
<path d="M86.9902 60.4038C85.8789 60.4038 84.8867 60.1795 84.0135 59.7308C83.1536 59.2692 82.4789 58.641 81.9894 57.8462C81.5 57.0513 81.2552 56.1474 81.2552 55.1346C81.2552 54.109 81.5 53.2051 81.9894 52.4231C82.4789 51.6282 83.1536 51.0064 84.0135 50.5577C84.8867 50.109 85.8789 49.8846 86.9902 49.8846C88.0221 49.8846 88.9283 50.0897 89.7088 50.5C90.5026 50.8974 91.1045 51.4872 91.5146 52.2692L89.6096 53.3462C89.2921 52.859 88.9018 52.5 88.4388 52.2692C87.989 52.0385 87.4995 51.9231 86.9703 51.9231C86.3618 51.9231 85.8127 52.0513 85.3233 52.3077C84.8338 52.5641 84.4501 52.9359 84.1723 53.4231C83.8945 53.8974 83.7556 54.4679 83.7556 55.1346C83.7556 55.8013 83.8945 56.3782 84.1723 56.8654C84.4501 57.3397 84.8338 57.7051 85.3233 57.9615C85.8127 58.2179 86.3618 58.3462 86.9703 58.3462C87.4995 58.3462 87.989 58.2308 88.4388 58C88.9018 57.7692 89.2921 57.4103 89.6096 56.9231L91.5146 58C91.1045 58.7692 90.5026 59.3654 89.7088 59.7885C88.9283 60.1987 88.0221 60.4038 86.9902 60.4038Z" fill="#0A5AB3"/>
<path d="M93.562 60.2692V46H96.0425V52.7692L95.5067 51.9231C95.8771 51.2692 96.4129 50.7692 97.1141 50.4231C97.8285 50.0641 98.6487 49.8846 99.5748 49.8846C100.421 49.8846 101.176 50.0449 101.837 50.3654C102.512 50.6859 103.041 51.1795 103.425 51.8462C103.808 52.5 104 53.3462 104 54.3846V60.2692H101.519V54.6923C101.519 53.7821 101.295 53.1026 100.845 52.6538C100.408 52.2051 99.793 51.9808 98.9993 51.9808C98.4172 51.9808 97.9012 52.0962 97.4514 52.3269C97.0016 52.5577 96.6511 52.9038 96.3997 53.3654C96.1616 53.8141 96.0425 54.3846 96.0425 55.0769V60.2692H93.562Z" fill="#0A5AB3"/>
</g>
<defs>
<clipPath id="clip0_2_51">
<rect width="104" height="64" fill="white"/>
</clipPath>
</defs>
</svg>
